<mxfile host="app.diagrams.net" agent="Mozilla/5.0 (Windows NT 10.0; Win64; x64) AppleWebKit/537.36 (KHTML, like Gecko) Chrome/135.0.0.0 Safari/537.36" version="26.0.2">
  <diagram name="PÃ¡gina-1" id="3ar1qyF-hi4ckDsHelcz">
    <mxGraphModel dx="1293" dy="745" grid="1" gridSize="10" guides="1" tooltips="1" connect="1" arrows="1" fold="1" page="1" pageScale="1" pageWidth="827" pageHeight="1169" math="0" shadow="0">
      <root>
        <mxCell id="0" />
        <mxCell id="1" parent="0" />
        <mxCell id="TXpV8QBchbM1sa9OBaiE-1" value="" style="rounded=0;whiteSpace=wrap;html=1;fillColor=#1ba1e2;fontColor=#FFFFFF;strokeColor=#006EAF;" parent="1" vertex="1">
          <mxGeometry x="-450" y="170" width="1260" height="530" as="geometry" />
        </mxCell>
        <mxCell id="m1_RTbBFShSdH4C13ESz-1" value="" style="rounded=0;whiteSpace=wrap;html=1;fillColor=#0050ef;fontColor=#FFFFFF;strokeColor=#001DBC;" parent="1" vertex="1">
          <mxGeometry x="-410" y="220" width="1198" height="450" as="geometry" />
        </mxCell>
        <mxCell id="TXpV8QBchbM1sa9OBaiE-2" value="Portal-Pagamentos" style="text;html=1;align=center;verticalAlign=middle;resizable=0;points=[];autosize=1;strokeColor=none;fillColor=none;fontColor=#FFFFFF;" parent="1" vertex="1">
          <mxGeometry x="115" y="190" width="130" height="30" as="geometry" />
        </mxCell>
        <mxCell id="TXpV8QBchbM1sa9OBaiE-7" style="edgeStyle=orthogonalEdgeStyle;rounded=0;orthogonalLoop=1;jettySize=auto;html=1;entryX=0.75;entryY=0;entryDx=0;entryDy=0;strokeColor=default;endArrow=none;startFill=0;endFill=0;startArrow=none;fontColor=#FFFFFF;" parent="1" target="TXpV8QBchbM1sa9OBaiE-42" edge="1">
          <mxGeometry relative="1" as="geometry">
            <mxPoint x="500" y="170" as="targetPoint" />
            <mxPoint x="-310" y="200" as="sourcePoint" />
            <Array as="points">
              <mxPoint x="-280" y="200" />
              <mxPoint x="-280" y="250" />
              <mxPoint x="721" y="250" />
            </Array>
          </mxGeometry>
        </mxCell>
        <mxCell id="TXpV8QBchbM1sa9OBaiE-14" value="" style="rounded=0;whiteSpace=wrap;html=1;fillColor=light-dark(#00ff00, #1f2f1e);strokeColor=#82b366;fontColor=#FFFFFF;" parent="1" vertex="1">
          <mxGeometry x="-370" y="260" width="1148" height="80" as="geometry" />
        </mxCell>
        <mxCell id="TXpV8QBchbM1sa9OBaiE-15" value="" style="rounded=0;whiteSpace=wrap;html=1;fillColor=light-dark(#ff9933, #FF9933);fontColor=#FFFFFF;" parent="1" vertex="1">
          <mxGeometry x="-370" y="360" width="1148" height="80" as="geometry" />
        </mxCell>
        <mxCell id="TXpV8QBchbM1sa9OBaiE-16" value="" style="rounded=0;whiteSpace=wrap;html=1;fillColor=light-dark(#ff0000, #CC0000);fontColor=#FFFFFF;" parent="1" vertex="1">
          <mxGeometry x="-370" y="460" width="1148" height="80" as="geometry" />
        </mxCell>
        <mxCell id="TXpV8QBchbM1sa9OBaiE-17" value="" style="rounded=0;whiteSpace=wrap;html=1;fillColor=light-dark(#CC00CC,#CC00CC);fontColor=#FFFFFF;" parent="1" vertex="1">
          <mxGeometry x="-370" y="560" width="1148" height="80" as="geometry" />
        </mxCell>
        <mxCell id="TXpV8QBchbM1sa9OBaiE-18" value="Interface" style="text;html=1;align=center;verticalAlign=middle;resizable=0;points=[];autosize=1;strokeColor=none;fillColor=none;fontColor=#FFFFFF;" parent="1" vertex="1">
          <mxGeometry x="154" y="260" width="70" height="30" as="geometry" />
        </mxCell>
        <mxCell id="TXpV8QBchbM1sa9OBaiE-19" value="Controller" style="text;html=1;align=center;verticalAlign=middle;resizable=0;points=[];autosize=1;strokeColor=none;fillColor=none;fontColor=#FFFFFF;" parent="1" vertex="1">
          <mxGeometry x="154" y="350" width="80" height="30" as="geometry" />
        </mxCell>
        <mxCell id="TXpV8QBchbM1sa9OBaiE-20" value="Service" style="text;html=1;align=center;verticalAlign=middle;resizable=0;points=[];autosize=1;strokeColor=none;fillColor=none;fontColor=#FFFFFF;" parent="1" vertex="1">
          <mxGeometry x="164" y="450" width="60" height="30" as="geometry" />
        </mxCell>
        <mxCell id="TXpV8QBchbM1sa9OBaiE-21" value="Domain" style="text;html=1;align=center;verticalAlign=middle;resizable=0;points=[];autosize=1;strokeColor=none;fillColor=none;fontColor=#FFFFFF;" parent="1" vertex="1">
          <mxGeometry x="170" y="555" width="60" height="30" as="geometry" />
        </mxCell>
        <mxCell id="TXpV8QBchbM1sa9OBaiE-22" value="" style="rounded=0;whiteSpace=wrap;html=1;fillColor=light-dark(#000099,#000099);fontColor=#FFFFFF;" parent="1" vertex="1">
          <mxGeometry x="348" y="280" width="110" height="50" as="geometry" />
        </mxCell>
        <mxCell id="TXpV8QBchbM1sa9OBaiE-23" value="&amp;lt;&amp;lt;component&amp;gt;&amp;gt;" style="text;html=1;align=center;verticalAlign=middle;resizable=0;points=[];autosize=1;strokeColor=none;fillColor=none;fontColor=#FFFFFF;" parent="1" vertex="1">
          <mxGeometry x="125" y="170" width="110" height="30" as="geometry" />
        </mxCell>
        <mxCell id="TXpV8QBchbM1sa9OBaiE-25" value="PaymentRepository" style="text;html=1;align=center;verticalAlign=middle;resizable=0;points=[];autosize=1;strokeColor=none;fillColor=none;fontColor=#FFFFFF;" parent="1" vertex="1">
          <mxGeometry x="338" y="290" width="130" height="30" as="geometry" />
        </mxCell>
        <mxCell id="TXpV8QBchbM1sa9OBaiE-33" style="edgeStyle=orthogonalEdgeStyle;rounded=0;orthogonalLoop=1;jettySize=auto;html=1;exitX=0.25;exitY=0;exitDx=0;exitDy=0;endArrow=halfCircle;endFill=0;fontColor=#FFFFFF;" parent="1" source="TXpV8QBchbM1sa9OBaiE-26" edge="1">
          <mxGeometry relative="1" as="geometry">
            <mxPoint x="376" y="350" as="targetPoint" />
          </mxGeometry>
        </mxCell>
        <mxCell id="TXpV8QBchbM1sa9OBaiE-26" value="" style="rounded=0;whiteSpace=wrap;html=1;fillColor=light-dark(#000099,#000099);fontColor=#FFFFFF;" parent="1" vertex="1">
          <mxGeometry x="348" y="380" width="110" height="50" as="geometry" />
        </mxCell>
        <mxCell id="TXpV8QBchbM1sa9OBaiE-27" value="PaymentMapper" style="text;html=1;align=center;verticalAlign=middle;resizable=0;points=[];autosize=1;strokeColor=none;fillColor=none;fontColor=#FFFFFF;" parent="1" vertex="1">
          <mxGeometry x="348" y="390" width="110" height="30" as="geometry" />
        </mxCell>
        <mxCell id="TXpV8QBchbM1sa9OBaiE-28" value="" style="rounded=0;whiteSpace=wrap;html=1;fillColor=light-dark(#000099,#000099);fontColor=#FFFFFF;" parent="1" vertex="1">
          <mxGeometry x="348" y="480" width="110" height="50" as="geometry" />
        </mxCell>
        <mxCell id="TXpV8QBchbM1sa9OBaiE-29" value="PaymentFactory" style="text;html=1;align=center;verticalAlign=middle;resizable=0;points=[];autosize=1;strokeColor=none;fillColor=none;fontColor=#FFFFFF;" parent="1" vertex="1">
          <mxGeometry x="348" y="490" width="110" height="30" as="geometry" />
        </mxCell>
        <mxCell id="TXpV8QBchbM1sa9OBaiE-30" value="" style="rounded=0;whiteSpace=wrap;html=1;fillColor=light-dark(#000099,#000099);fontColor=#FFFFFF;" parent="1" vertex="1">
          <mxGeometry x="478" y="590" width="110" height="50" as="geometry" />
        </mxCell>
        <mxCell id="TXpV8QBchbM1sa9OBaiE-31" value="Payment" style="text;html=1;align=center;verticalAlign=middle;resizable=0;points=[];autosize=1;strokeColor=none;fillColor=none;fontColor=#FFFFFF;" parent="1" vertex="1">
          <mxGeometry x="498" y="600" width="70" height="30" as="geometry" />
        </mxCell>
        <mxCell id="TXpV8QBchbM1sa9OBaiE-5" style="edgeStyle=orthogonalEdgeStyle;rounded=0;orthogonalLoop=1;jettySize=auto;html=1;strokeColor=default;endArrow=none;startFill=0;entryX=0.5;entryY=0;entryDx=0;entryDy=0;jumpSize=0;jumpStyle=line;startArrow=none;fontColor=#FFFFFF;" parent="1" edge="1">
          <mxGeometry relative="1" as="geometry">
            <mxPoint x="394" y="280" as="targetPoint" />
            <Array as="points">
              <mxPoint x="1" y="200" />
              <mxPoint x="394" y="200" />
            </Array>
            <mxPoint x="1" y="200" as="sourcePoint" />
          </mxGeometry>
        </mxCell>
        <mxCell id="TXpV8QBchbM1sa9OBaiE-32" style="edgeStyle=orthogonalEdgeStyle;rounded=0;orthogonalLoop=1;jettySize=auto;html=1;endArrow=oval;endFill=0;fontColor=#FFFFFF;" parent="1" edge="1">
          <mxGeometry relative="1" as="geometry">
            <mxPoint x="376" y="330" as="sourcePoint" />
            <mxPoint x="376" y="351" as="targetPoint" />
            <Array as="points">
              <mxPoint x="376" y="351" />
            </Array>
          </mxGeometry>
        </mxCell>
        <mxCell id="TXpV8QBchbM1sa9OBaiE-36" style="edgeStyle=orthogonalEdgeStyle;rounded=0;orthogonalLoop=1;jettySize=auto;html=1;exitX=0.25;exitY=0;exitDx=0;exitDy=0;endArrow=halfCircle;endFill=0;fontColor=#FFFFFF;" parent="1" source="TXpV8QBchbM1sa9OBaiE-28" edge="1">
          <mxGeometry relative="1" as="geometry">
            <mxPoint x="376" y="450" as="targetPoint" />
            <mxPoint x="386" y="390" as="sourcePoint" />
          </mxGeometry>
        </mxCell>
        <mxCell id="TXpV8QBchbM1sa9OBaiE-37" style="edgeStyle=orthogonalEdgeStyle;rounded=0;orthogonalLoop=1;jettySize=auto;html=1;endArrow=oval;endFill=0;exitX=0.25;exitY=1;exitDx=0;exitDy=0;fontColor=#FFFFFF;" parent="1" source="TXpV8QBchbM1sa9OBaiE-26" edge="1">
          <mxGeometry relative="1" as="geometry">
            <mxPoint x="386" y="340" as="sourcePoint" />
            <mxPoint x="376" y="450" as="targetPoint" />
            <Array as="points">
              <mxPoint x="376" y="450" />
            </Array>
          </mxGeometry>
        </mxCell>
        <mxCell id="TXpV8QBchbM1sa9OBaiE-38" style="edgeStyle=orthogonalEdgeStyle;rounded=0;orthogonalLoop=1;jettySize=auto;html=1;exitX=0.25;exitY=1;exitDx=0;exitDy=0;endArrow=halfCircle;endFill=0;fontColor=#FFFFFF;" parent="1" source="TXpV8QBchbM1sa9OBaiE-28" target="TXpV8QBchbM1sa9OBaiE-17" edge="1">
          <mxGeometry relative="1" as="geometry">
            <mxPoint x="388" y="610" as="targetPoint" />
            <mxPoint x="396" y="400" as="sourcePoint" />
            <Array as="points">
              <mxPoint x="388" y="530" />
            </Array>
          </mxGeometry>
        </mxCell>
        <mxCell id="TXpV8QBchbM1sa9OBaiE-42" value="" style="rounded=0;whiteSpace=wrap;html=1;fillColor=light-dark(#000099,#000099);fontColor=#FFFFFF;" parent="1" vertex="1">
          <mxGeometry x="638" y="280" width="110" height="50" as="geometry" />
        </mxCell>
        <mxCell id="TXpV8QBchbM1sa9OBaiE-43" value="PaymentAPI" style="text;html=1;align=center;verticalAlign=middle;resizable=0;points=[];autosize=1;strokeColor=none;fillColor=none;fontColor=#FFFFFF;" parent="1" vertex="1">
          <mxGeometry x="648" y="290" width="90" height="30" as="geometry" />
        </mxCell>
        <mxCell id="TXpV8QBchbM1sa9OBaiE-44" style="edgeStyle=orthogonalEdgeStyle;rounded=0;orthogonalLoop=1;jettySize=auto;html=1;exitX=0.25;exitY=0;exitDx=0;exitDy=0;endArrow=halfCircle;endFill=0;fontColor=#FFFFFF;" parent="1" source="TXpV8QBchbM1sa9OBaiE-45" edge="1">
          <mxGeometry relative="1" as="geometry">
            <mxPoint x="666" y="350" as="targetPoint" />
          </mxGeometry>
        </mxCell>
        <mxCell id="TXpV8QBchbM1sa9OBaiE-45" value="" style="rounded=0;whiteSpace=wrap;html=1;fillColor=light-dark(#000099,#000099);fontColor=#FFFFFF;" parent="1" vertex="1">
          <mxGeometry x="638" y="380" width="110" height="50" as="geometry" />
        </mxCell>
        <mxCell id="TXpV8QBchbM1sa9OBaiE-46" value="PaymentController" style="text;html=1;align=center;verticalAlign=middle;resizable=0;points=[];autosize=1;strokeColor=none;fillColor=none;fontColor=#FFFFFF;" parent="1" vertex="1">
          <mxGeometry x="633" y="390" width="120" height="30" as="geometry" />
        </mxCell>
        <mxCell id="TXpV8QBchbM1sa9OBaiE-47" value="" style="rounded=0;whiteSpace=wrap;html=1;fillColor=light-dark(#000099,#000099);fontColor=#FFFFFF;" parent="1" vertex="1">
          <mxGeometry x="638" y="480" width="110" height="50" as="geometry" />
        </mxCell>
        <mxCell id="TXpV8QBchbM1sa9OBaiE-48" value="PaymentService" style="text;html=1;align=center;verticalAlign=middle;resizable=0;points=[];autosize=1;strokeColor=none;fillColor=none;fontColor=#FFFFFF;" parent="1" vertex="1">
          <mxGeometry x="638" y="490" width="110" height="30" as="geometry" />
        </mxCell>
        <mxCell id="TXpV8QBchbM1sa9OBaiE-49" style="edgeStyle=orthogonalEdgeStyle;rounded=0;orthogonalLoop=1;jettySize=auto;html=1;endArrow=oval;endFill=0;fontColor=#FFFFFF;" parent="1" edge="1">
          <mxGeometry relative="1" as="geometry">
            <mxPoint x="666" y="330" as="sourcePoint" />
            <mxPoint x="666" y="351" as="targetPoint" />
            <Array as="points">
              <mxPoint x="666" y="351" />
            </Array>
          </mxGeometry>
        </mxCell>
        <mxCell id="TXpV8QBchbM1sa9OBaiE-50" style="edgeStyle=orthogonalEdgeStyle;rounded=0;orthogonalLoop=1;jettySize=auto;html=1;exitX=0.25;exitY=0;exitDx=0;exitDy=0;endArrow=halfCircle;endFill=0;fontColor=#FFFFFF;" parent="1" source="TXpV8QBchbM1sa9OBaiE-47" edge="1">
          <mxGeometry relative="1" as="geometry">
            <mxPoint x="666" y="450" as="targetPoint" />
            <mxPoint x="676" y="390" as="sourcePoint" />
          </mxGeometry>
        </mxCell>
        <mxCell id="TXpV8QBchbM1sa9OBaiE-51" style="edgeStyle=orthogonalEdgeStyle;rounded=0;orthogonalLoop=1;jettySize=auto;html=1;endArrow=oval;endFill=0;exitX=0.25;exitY=1;exitDx=0;exitDy=0;fontColor=#FFFFFF;" parent="1" source="TXpV8QBchbM1sa9OBaiE-45" edge="1">
          <mxGeometry relative="1" as="geometry">
            <mxPoint x="676" y="340" as="sourcePoint" />
            <mxPoint x="666" y="450" as="targetPoint" />
            <Array as="points">
              <mxPoint x="666" y="450" />
            </Array>
          </mxGeometry>
        </mxCell>
        <mxCell id="TXpV8QBchbM1sa9OBaiE-53" style="edgeStyle=orthogonalEdgeStyle;rounded=0;orthogonalLoop=1;jettySize=auto;html=1;endArrow=oval;endFill=0;fontColor=#FFFFFF;" parent="1" edge="1">
          <mxGeometry relative="1" as="geometry">
            <mxPoint x="588" y="615" as="sourcePoint" />
            <mxPoint x="658" y="615" as="targetPoint" />
            <Array as="points">
              <mxPoint x="588" y="615" />
              <mxPoint x="728" y="615" />
            </Array>
          </mxGeometry>
        </mxCell>
        <mxCell id="TXpV8QBchbM1sa9OBaiE-54" style="edgeStyle=orthogonalEdgeStyle;rounded=0;orthogonalLoop=1;jettySize=auto;html=1;endArrow=halfCircle;endFill=0;fontColor=#FFFFFF;" parent="1" edge="1">
          <mxGeometry relative="1" as="geometry">
            <mxPoint x="638" y="504.5" as="sourcePoint" />
            <mxPoint x="544" y="504.5" as="targetPoint" />
            <Array as="points">
              <mxPoint x="588" y="504.5" />
              <mxPoint x="588" y="504.5" />
            </Array>
          </mxGeometry>
        </mxCell>
        <mxCell id="TXpV8QBchbM1sa9OBaiE-55" style="edgeStyle=orthogonalEdgeStyle;rounded=0;orthogonalLoop=1;jettySize=auto;html=1;endArrow=halfCircle;endFill=0;fontColor=#FFFFFF;" parent="1" edge="1">
          <mxGeometry relative="1" as="geometry">
            <mxPoint x="638" y="404.5" as="sourcePoint" />
            <mxPoint x="544" y="404.5" as="targetPoint" />
            <Array as="points">
              <mxPoint x="588" y="404.5" />
              <mxPoint x="588" y="404.5" />
            </Array>
          </mxGeometry>
        </mxCell>
        <mxCell id="TXpV8QBchbM1sa9OBaiE-56" style="edgeStyle=orthogonalEdgeStyle;rounded=0;orthogonalLoop=1;jettySize=auto;html=1;endArrow=oval;endFill=0;exitX=-0.003;exitY=0.086;exitDx=0;exitDy=0;exitPerimeter=0;fontColor=#FFFFFF;" parent="1" source="TXpV8QBchbM1sa9OBaiE-62" edge="1">
          <mxGeometry relative="1" as="geometry">
            <mxPoint x="479" y="572" as="sourcePoint" />
            <mxPoint x="390" y="568" as="targetPoint" />
            <Array as="points">
              <mxPoint x="478" y="572" />
              <mxPoint x="390" y="572" />
            </Array>
          </mxGeometry>
        </mxCell>
        <mxCell id="TXpV8QBchbM1sa9OBaiE-57" style="edgeStyle=orthogonalEdgeStyle;rounded=0;orthogonalLoop=1;jettySize=auto;html=1;exitX=0.75;exitY=1;exitDx=0;exitDy=0;endArrow=halfCircle;endFill=0;fontColor=#FFFFFF;" parent="1" source="TXpV8QBchbM1sa9OBaiE-47" edge="1">
          <mxGeometry relative="1" as="geometry">
            <mxPoint x="658" y="610" as="targetPoint" />
            <mxPoint x="386" y="540" as="sourcePoint" />
            <Array as="points" />
          </mxGeometry>
        </mxCell>
        <mxCell id="TXpV8QBchbM1sa9OBaiE-58" style="edgeStyle=orthogonalEdgeStyle;rounded=0;orthogonalLoop=1;jettySize=auto;html=1;exitX=1;exitY=0.5;exitDx=0;exitDy=0;endArrow=oval;endFill=0;fontColor=#FFFFFF;" parent="1" source="TXpV8QBchbM1sa9OBaiE-28" edge="1">
          <mxGeometry relative="1" as="geometry">
            <mxPoint x="538" y="505" as="targetPoint" />
            <mxPoint x="386" y="540" as="sourcePoint" />
            <Array as="points">
              <mxPoint x="458" y="505" />
            </Array>
          </mxGeometry>
        </mxCell>
        <mxCell id="TXpV8QBchbM1sa9OBaiE-59" style="edgeStyle=orthogonalEdgeStyle;rounded=0;orthogonalLoop=1;jettySize=auto;html=1;exitX=1;exitY=0.5;exitDx=0;exitDy=0;endArrow=oval;endFill=0;fontColor=#FFFFFF;" parent="1" edge="1">
          <mxGeometry relative="1" as="geometry">
            <mxPoint x="538" y="404.5" as="targetPoint" />
            <mxPoint x="458" y="404.5" as="sourcePoint" />
            <Array as="points">
              <mxPoint x="458" y="404.5" />
            </Array>
          </mxGeometry>
        </mxCell>
        <mxCell id="TXpV8QBchbM1sa9OBaiE-61" value="&amp;lt;&amp;lt;component&amp;gt;&amp;gt;" style="text;html=1;align=center;verticalAlign=middle;resizable=0;points=[];autosize=1;strokeColor=none;fillColor=none;fontColor=#FFFFFF;" parent="1" vertex="1">
          <mxGeometry x="348" y="270" width="110" height="30" as="geometry" />
        </mxCell>
        <mxCell id="TXpV8QBchbM1sa9OBaiE-62" value="&amp;lt;&amp;lt;component&amp;gt;&amp;gt;" style="text;html=1;align=center;verticalAlign=middle;resizable=0;points=[];autosize=1;strokeColor=none;fillColor=none;fontColor=#FFFFFF;" parent="1" vertex="1">
          <mxGeometry x="478" y="585" width="110" height="30" as="geometry" />
        </mxCell>
        <mxCell id="TXpV8QBchbM1sa9OBaiE-63" value="&amp;lt;&amp;lt;component&amp;gt;&amp;gt;" style="text;html=1;align=center;verticalAlign=middle;resizable=0;points=[];autosize=1;strokeColor=none;fillColor=none;fontColor=#FFFFFF;" parent="1" vertex="1">
          <mxGeometry x="348" y="470" width="110" height="30" as="geometry" />
        </mxCell>
        <mxCell id="TXpV8QBchbM1sa9OBaiE-64" value="&amp;lt;&amp;lt;component&amp;gt;&amp;gt;" style="text;html=1;align=center;verticalAlign=middle;resizable=0;points=[];autosize=1;strokeColor=none;fillColor=none;fontColor=#FFFFFF;" parent="1" vertex="1">
          <mxGeometry x="348" y="370" width="110" height="30" as="geometry" />
        </mxCell>
        <mxCell id="TXpV8QBchbM1sa9OBaiE-65" value="&amp;lt;&amp;lt;component&amp;gt;&amp;gt;" style="text;html=1;align=center;verticalAlign=middle;resizable=0;points=[];autosize=1;strokeColor=none;fillColor=none;fontColor=#FFFFFF;" parent="1" vertex="1">
          <mxGeometry x="638" y="270" width="110" height="30" as="geometry" />
        </mxCell>
        <mxCell id="TXpV8QBchbM1sa9OBaiE-66" value="&amp;lt;&amp;lt;component&amp;gt;&amp;gt;" style="text;html=1;align=center;verticalAlign=middle;resizable=0;points=[];autosize=1;strokeColor=none;fillColor=none;fontColor=#FFFFFF;" parent="1" vertex="1">
          <mxGeometry x="638" y="370" width="110" height="30" as="geometry" />
        </mxCell>
        <mxCell id="TXpV8QBchbM1sa9OBaiE-67" value="&amp;lt;&amp;lt;component&amp;gt;&amp;gt;" style="text;html=1;align=center;verticalAlign=middle;resizable=0;points=[];autosize=1;strokeColor=none;fillColor=none;fontColor=#FFFFFF;" parent="1" vertex="1">
          <mxGeometry x="638" y="470" width="110" height="30" as="geometry" />
        </mxCell>
        <mxCell id="TXpV8QBchbM1sa9OBaiE-68" style="edgeStyle=orthogonalEdgeStyle;rounded=0;orthogonalLoop=1;jettySize=auto;html=1;exitX=0.75;exitY=1;exitDx=0;exitDy=0;endArrow=halfCircle;endFill=0;fontColor=#FFFFFF;" parent="1" source="TXpV8QBchbM1sa9OBaiE-22" edge="1">
          <mxGeometry relative="1" as="geometry">
            <mxPoint x="428" y="350" as="targetPoint" />
            <mxPoint x="386" y="390" as="sourcePoint" />
          </mxGeometry>
        </mxCell>
        <mxCell id="TXpV8QBchbM1sa9OBaiE-69" style="edgeStyle=orthogonalEdgeStyle;rounded=0;orthogonalLoop=1;jettySize=auto;html=1;endArrow=oval;endFill=0;exitX=0.75;exitY=0;exitDx=0;exitDy=0;fontColor=#FFFFFF;" parent="1" source="TXpV8QBchbM1sa9OBaiE-26" edge="1">
          <mxGeometry relative="1" as="geometry">
            <mxPoint x="386" y="340" as="sourcePoint" />
            <mxPoint x="428" y="350" as="targetPoint" />
            <Array as="points" />
          </mxGeometry>
        </mxCell>
        <mxCell id="TXpV8QBchbM1sa9OBaiE-72" style="edgeStyle=orthogonalEdgeStyle;rounded=0;orthogonalLoop=1;jettySize=auto;html=1;exitX=0.75;exitY=1;exitDx=0;exitDy=0;endArrow=halfCircle;endFill=0;fontColor=#FFFFFF;" parent="1" source="TXpV8QBchbM1sa9OBaiE-26" edge="1">
          <mxGeometry relative="1" as="geometry">
            <mxPoint x="431" y="450" as="targetPoint" />
            <mxPoint x="441" y="340" as="sourcePoint" />
            <Array as="points">
              <mxPoint x="431" y="440" />
              <mxPoint x="431" y="440" />
            </Array>
          </mxGeometry>
        </mxCell>
        <mxCell id="TXpV8QBchbM1sa9OBaiE-73" style="edgeStyle=orthogonalEdgeStyle;rounded=0;orthogonalLoop=1;jettySize=auto;html=1;endArrow=oval;endFill=0;exitX=0.75;exitY=0;exitDx=0;exitDy=0;fontColor=#FFFFFF;" parent="1" source="TXpV8QBchbM1sa9OBaiE-28" edge="1">
          <mxGeometry relative="1" as="geometry">
            <mxPoint x="441" y="390" as="sourcePoint" />
            <mxPoint x="431" y="450" as="targetPoint" />
            <Array as="points" />
          </mxGeometry>
        </mxCell>
        <mxCell id="m1_RTbBFShSdH4C13ESz-2" value="&amp;lt;&amp;lt;component&amp;gt;&amp;gt;" style="text;html=1;align=center;verticalAlign=middle;resizable=0;points=[];autosize=1;strokeColor=none;fillColor=none;fontColor=#FFFFFF;" parent="1" vertex="1">
          <mxGeometry x="125" y="210" width="110" height="30" as="geometry" />
        </mxCell>
        <mxCell id="m1_RTbBFShSdH4C13ESz-3" value="WebServer" style="text;html=1;align=center;verticalAlign=middle;resizable=0;points=[];autosize=1;strokeColor=none;fillColor=none;fontColor=#FFFFFF;" parent="1" vertex="1">
          <mxGeometry x="140" y="230" width="80" height="30" as="geometry" />
        </mxCell>
        <mxCell id="4uh7wLbc7iDbbBHVVUOS-55" value="" style="rounded=0;whiteSpace=wrap;html=1;fillColor=light-dark(#000099,#000099);fontColor=#FFFFFF;" parent="1" vertex="1">
          <mxGeometry x="-350" y="270" width="110" height="50" as="geometry" />
        </mxCell>
        <mxCell id="4uh7wLbc7iDbbBHVVUOS-56" value="UserAPI" style="text;html=1;align=center;verticalAlign=middle;resizable=0;points=[];autosize=1;strokeColor=none;fillColor=none;fontColor=#FFFFFF;" parent="1" vertex="1">
          <mxGeometry x="-330" y="280" width="70" height="30" as="geometry" />
        </mxCell>
        <mxCell id="4uh7wLbc7iDbbBHVVUOS-57" style="edgeStyle=orthogonalEdgeStyle;rounded=0;orthogonalLoop=1;jettySize=auto;html=1;exitX=0.25;exitY=0;exitDx=0;exitDy=0;endArrow=halfCircle;endFill=0;fontColor=#FFFFFF;" parent="1" source="4uh7wLbc7iDbbBHVVUOS-58" edge="1">
          <mxGeometry relative="1" as="geometry">
            <mxPoint x="-322" y="340" as="targetPoint" />
          </mxGeometry>
        </mxCell>
        <mxCell id="4uh7wLbc7iDbbBHVVUOS-58" value="" style="rounded=0;whiteSpace=wrap;html=1;fillColor=light-dark(#000099,#000099);fontColor=#FFFFFF;" parent="1" vertex="1">
          <mxGeometry x="-350" y="370" width="110" height="50" as="geometry" />
        </mxCell>
        <mxCell id="4uh7wLbc7iDbbBHVVUOS-59" value="UserController" style="text;html=1;align=center;verticalAlign=middle;resizable=0;points=[];autosize=1;strokeColor=none;fillColor=none;fontColor=#FFFFFF;" parent="1" vertex="1">
          <mxGeometry x="-345" y="380" width="100" height="30" as="geometry" />
        </mxCell>
        <mxCell id="4uh7wLbc7iDbbBHVVUOS-60" value="" style="rounded=0;whiteSpace=wrap;html=1;fillColor=light-dark(#000099,#000099);fontColor=#FFFFFF;" parent="1" vertex="1">
          <mxGeometry x="-350" y="470" width="110" height="50" as="geometry" />
        </mxCell>
        <mxCell id="4uh7wLbc7iDbbBHVVUOS-61" value="UserService" style="text;html=1;align=center;verticalAlign=middle;resizable=0;points=[];autosize=1;strokeColor=none;fillColor=none;fontColor=#FFFFFF;" parent="1" vertex="1">
          <mxGeometry x="-340" y="480" width="90" height="30" as="geometry" />
        </mxCell>
        <mxCell id="4uh7wLbc7iDbbBHVVUOS-62" value="" style="rounded=0;whiteSpace=wrap;html=1;fillColor=light-dark(#000099,#000099);fontColor=#FFFFFF;" parent="1" vertex="1">
          <mxGeometry x="-270" y="577.5" width="110" height="50" as="geometry" />
        </mxCell>
        <mxCell id="4uh7wLbc7iDbbBHVVUOS-63" value="User" style="text;html=1;align=center;verticalAlign=middle;resizable=0;points=[];autosize=1;strokeColor=none;fillColor=none;fontColor=#FFFFFF;" parent="1" vertex="1">
          <mxGeometry x="-240" y="587.5" width="50" height="30" as="geometry" />
        </mxCell>
        <mxCell id="4uh7wLbc7iDbbBHVVUOS-64" style="edgeStyle=orthogonalEdgeStyle;rounded=0;orthogonalLoop=1;jettySize=auto;html=1;endArrow=oval;endFill=0;fontColor=#FFFFFF;" parent="1" edge="1">
          <mxGeometry relative="1" as="geometry">
            <mxPoint x="-322" y="320" as="sourcePoint" />
            <mxPoint x="-322" y="341" as="targetPoint" />
            <Array as="points">
              <mxPoint x="-322" y="341" />
            </Array>
          </mxGeometry>
        </mxCell>
        <mxCell id="4uh7wLbc7iDbbBHVVUOS-65" style="edgeStyle=orthogonalEdgeStyle;rounded=0;orthogonalLoop=1;jettySize=auto;html=1;exitX=0.25;exitY=0;exitDx=0;exitDy=0;endArrow=halfCircle;endFill=0;fontColor=#FFFFFF;" parent="1" source="4uh7wLbc7iDbbBHVVUOS-60" edge="1">
          <mxGeometry relative="1" as="geometry">
            <mxPoint x="-322" y="440" as="targetPoint" />
            <mxPoint x="-312" y="380" as="sourcePoint" />
          </mxGeometry>
        </mxCell>
        <mxCell id="4uh7wLbc7iDbbBHVVUOS-66" style="edgeStyle=orthogonalEdgeStyle;rounded=0;orthogonalLoop=1;jettySize=auto;html=1;endArrow=oval;endFill=0;exitX=0.25;exitY=1;exitDx=0;exitDy=0;fontColor=#FFFFFF;" parent="1" source="4uh7wLbc7iDbbBHVVUOS-58" edge="1">
          <mxGeometry relative="1" as="geometry">
            <mxPoint x="-312" y="330" as="sourcePoint" />
            <mxPoint x="-322" y="440" as="targetPoint" />
            <Array as="points">
              <mxPoint x="-322" y="440" />
            </Array>
          </mxGeometry>
        </mxCell>
        <mxCell id="4uh7wLbc7iDbbBHVVUOS-67" style="edgeStyle=orthogonalEdgeStyle;rounded=0;orthogonalLoop=1;jettySize=auto;html=1;exitX=0.25;exitY=1;exitDx=0;exitDy=0;endArrow=halfCircle;endFill=0;fontColor=#FFFFFF;" parent="1" source="4uh7wLbc7iDbbBHVVUOS-60" edge="1">
          <mxGeometry relative="1" as="geometry">
            <mxPoint x="-310" y="600" as="targetPoint" />
            <mxPoint x="-302" y="390" as="sourcePoint" />
            <Array as="points">
              <mxPoint x="-310" y="520" />
            </Array>
          </mxGeometry>
        </mxCell>
        <mxCell id="4uh7wLbc7iDbbBHVVUOS-68" value="" style="rounded=0;whiteSpace=wrap;html=1;fillColor=light-dark(#000099,#000099);fontColor=#FFFFFF;" parent="1" vertex="1">
          <mxGeometry x="-60" y="270" width="110" height="50" as="geometry" />
        </mxCell>
        <mxCell id="4uh7wLbc7iDbbBHVVUOS-69" value="UserRepository" style="text;html=1;align=center;verticalAlign=middle;resizable=0;points=[];autosize=1;strokeColor=none;fillColor=none;fontColor=#FFFFFF;" parent="1" vertex="1">
          <mxGeometry x="-60" y="280" width="110" height="30" as="geometry" />
        </mxCell>
        <mxCell id="4uh7wLbc7iDbbBHVVUOS-70" style="edgeStyle=orthogonalEdgeStyle;rounded=0;orthogonalLoop=1;jettySize=auto;html=1;exitX=0.25;exitY=0;exitDx=0;exitDy=0;endArrow=halfCircle;endFill=0;fontColor=#FFFFFF;" parent="1" source="4uh7wLbc7iDbbBHVVUOS-71" edge="1">
          <mxGeometry relative="1" as="geometry">
            <mxPoint x="-32" y="340" as="targetPoint" />
          </mxGeometry>
        </mxCell>
        <mxCell id="4uh7wLbc7iDbbBHVVUOS-71" value="" style="rounded=0;whiteSpace=wrap;html=1;fillColor=light-dark(#000099,#000099);fontColor=#FFFFFF;" parent="1" vertex="1">
          <mxGeometry x="-60" y="370" width="110" height="50" as="geometry" />
        </mxCell>
        <mxCell id="4uh7wLbc7iDbbBHVVUOS-72" value="UserMapper" style="text;html=1;align=center;verticalAlign=middle;resizable=0;points=[];autosize=1;strokeColor=none;fillColor=none;fontColor=#FFFFFF;" parent="1" vertex="1">
          <mxGeometry x="-50" y="380" width="90" height="30" as="geometry" />
        </mxCell>
        <mxCell id="4uh7wLbc7iDbbBHVVUOS-73" value="" style="rounded=0;whiteSpace=wrap;html=1;fillColor=light-dark(#000099,#000099);fontColor=#FFFFFF;" parent="1" vertex="1">
          <mxGeometry x="-60" y="470" width="110" height="50" as="geometry" />
        </mxCell>
        <mxCell id="4uh7wLbc7iDbbBHVVUOS-74" value="UserFactory" style="text;html=1;align=center;verticalAlign=middle;resizable=0;points=[];autosize=1;strokeColor=none;fillColor=none;fontColor=#FFFFFF;" parent="1" vertex="1">
          <mxGeometry x="-50" y="480" width="90" height="30" as="geometry" />
        </mxCell>
        <mxCell id="4uh7wLbc7iDbbBHVVUOS-75" style="edgeStyle=orthogonalEdgeStyle;rounded=0;orthogonalLoop=1;jettySize=auto;html=1;endArrow=oval;endFill=0;fontColor=#FFFFFF;" parent="1" edge="1">
          <mxGeometry relative="1" as="geometry">
            <mxPoint x="-32" y="320" as="sourcePoint" />
            <mxPoint x="-32" y="341" as="targetPoint" />
            <Array as="points">
              <mxPoint x="-32" y="341" />
            </Array>
          </mxGeometry>
        </mxCell>
        <mxCell id="4uh7wLbc7iDbbBHVVUOS-76" style="edgeStyle=orthogonalEdgeStyle;rounded=0;orthogonalLoop=1;jettySize=auto;html=1;exitX=0.25;exitY=0;exitDx=0;exitDy=0;endArrow=halfCircle;endFill=0;fontColor=#FFFFFF;" parent="1" source="4uh7wLbc7iDbbBHVVUOS-73" edge="1">
          <mxGeometry relative="1" as="geometry">
            <mxPoint x="-32" y="440" as="targetPoint" />
            <mxPoint x="-22" y="380" as="sourcePoint" />
          </mxGeometry>
        </mxCell>
        <mxCell id="4uh7wLbc7iDbbBHVVUOS-77" style="edgeStyle=orthogonalEdgeStyle;rounded=0;orthogonalLoop=1;jettySize=auto;html=1;endArrow=oval;endFill=0;exitX=0.25;exitY=1;exitDx=0;exitDy=0;fontColor=#FFFFFF;" parent="1" source="4uh7wLbc7iDbbBHVVUOS-71" edge="1">
          <mxGeometry relative="1" as="geometry">
            <mxPoint x="-22" y="330" as="sourcePoint" />
            <mxPoint x="-32" y="440" as="targetPoint" />
            <Array as="points">
              <mxPoint x="-32" y="440" />
            </Array>
          </mxGeometry>
        </mxCell>
        <mxCell id="4uh7wLbc7iDbbBHVVUOS-78" style="edgeStyle=orthogonalEdgeStyle;rounded=0;orthogonalLoop=1;jettySize=auto;html=1;endArrow=oval;endFill=0;exitX=0.555;exitY=0.15;exitDx=0;exitDy=0;exitPerimeter=0;fontColor=#FFFFFF;" parent="1" source="4uh7wLbc7iDbbBHVVUOS-130" edge="1">
          <mxGeometry relative="1" as="geometry">
            <mxPoint x="-110" y="605" as="sourcePoint" />
            <mxPoint x="-40" y="570" as="targetPoint" />
            <Array as="points">
              <mxPoint x="-39" y="577" />
              <mxPoint x="-40" y="577" />
            </Array>
          </mxGeometry>
        </mxCell>
        <mxCell id="4uh7wLbc7iDbbBHVVUOS-79" style="edgeStyle=orthogonalEdgeStyle;rounded=0;orthogonalLoop=1;jettySize=auto;html=1;endArrow=oval;endFill=0;fontColor=#FFFFFF;" parent="1" edge="1">
          <mxGeometry relative="1" as="geometry">
            <mxPoint x="-60" y="494.5" as="sourcePoint" />
            <mxPoint x="-154" y="494.5" as="targetPoint" />
            <Array as="points">
              <mxPoint x="-110" y="494.5" />
              <mxPoint x="-110" y="494.5" />
            </Array>
          </mxGeometry>
        </mxCell>
        <mxCell id="4uh7wLbc7iDbbBHVVUOS-80" style="edgeStyle=orthogonalEdgeStyle;rounded=0;orthogonalLoop=1;jettySize=auto;html=1;endArrow=oval;endFill=0;fontColor=#FFFFFF;" parent="1" edge="1">
          <mxGeometry relative="1" as="geometry">
            <mxPoint x="-60" y="394.5" as="sourcePoint" />
            <mxPoint x="-154" y="394.5" as="targetPoint" />
            <Array as="points">
              <mxPoint x="-110" y="394.5" />
              <mxPoint x="-110" y="394.5" />
            </Array>
          </mxGeometry>
        </mxCell>
        <mxCell id="4uh7wLbc7iDbbBHVVUOS-81" style="edgeStyle=orthogonalEdgeStyle;rounded=0;orthogonalLoop=1;jettySize=auto;html=1;endArrow=oval;endFill=0;exitX=-0.008;exitY=1.026;exitDx=0;exitDy=0;exitPerimeter=0;fontColor=#FFFFFF;" parent="1" source="4uh7wLbc7iDbbBHVVUOS-85" edge="1">
          <mxGeometry relative="1" as="geometry">
            <mxPoint x="-221" y="604" as="sourcePoint" />
            <mxPoint x="-310" y="600" as="targetPoint" />
            <Array as="points">
              <mxPoint x="-271" y="600" />
            </Array>
          </mxGeometry>
        </mxCell>
        <mxCell id="4uh7wLbc7iDbbBHVVUOS-82" style="edgeStyle=orthogonalEdgeStyle;rounded=0;orthogonalLoop=1;jettySize=auto;html=1;exitX=0.75;exitY=1;exitDx=0;exitDy=0;endArrow=halfCircle;endFill=0;fontColor=#FFFFFF;" parent="1" source="4uh7wLbc7iDbbBHVVUOS-73" edge="1">
          <mxGeometry relative="1" as="geometry">
            <mxPoint x="-40" y="570" as="targetPoint" />
            <mxPoint x="-312" y="530" as="sourcePoint" />
            <Array as="points" />
          </mxGeometry>
        </mxCell>
        <mxCell id="4uh7wLbc7iDbbBHVVUOS-83" style="edgeStyle=orthogonalEdgeStyle;rounded=0;orthogonalLoop=1;jettySize=auto;html=1;exitX=1;exitY=0.5;exitDx=0;exitDy=0;endArrow=halfCircle;endFill=0;fontColor=#FFFFFF;" parent="1" source="4uh7wLbc7iDbbBHVVUOS-60" edge="1">
          <mxGeometry relative="1" as="geometry">
            <mxPoint x="-160" y="495" as="targetPoint" />
            <mxPoint x="-312" y="530" as="sourcePoint" />
            <Array as="points">
              <mxPoint x="-240" y="495" />
            </Array>
          </mxGeometry>
        </mxCell>
        <mxCell id="4uh7wLbc7iDbbBHVVUOS-84" style="edgeStyle=orthogonalEdgeStyle;rounded=0;orthogonalLoop=1;jettySize=auto;html=1;exitX=1;exitY=0.5;exitDx=0;exitDy=0;endArrow=halfCircle;endFill=0;fontColor=#FFFFFF;" parent="1" edge="1">
          <mxGeometry relative="1" as="geometry">
            <mxPoint x="-160" y="394.5" as="targetPoint" />
            <mxPoint x="-240" y="394.5" as="sourcePoint" />
            <Array as="points">
              <mxPoint x="-240" y="394.5" />
            </Array>
          </mxGeometry>
        </mxCell>
        <mxCell id="4uh7wLbc7iDbbBHVVUOS-85" value="&amp;lt;&amp;lt;component&amp;gt;&amp;gt;" style="text;html=1;align=center;verticalAlign=middle;resizable=0;points=[];autosize=1;strokeColor=none;fillColor=none;fontColor=#FFFFFF;" parent="1" vertex="1">
          <mxGeometry x="-270" y="572.5" width="110" height="30" as="geometry" />
        </mxCell>
        <mxCell id="4uh7wLbc7iDbbBHVVUOS-86" value="&amp;lt;&amp;lt;component&amp;gt;&amp;gt;" style="text;html=1;align=center;verticalAlign=middle;resizable=0;points=[];autosize=1;strokeColor=none;fillColor=none;fontColor=#FFFFFF;" parent="1" vertex="1">
          <mxGeometry x="-350" y="460" width="110" height="30" as="geometry" />
        </mxCell>
        <mxCell id="4uh7wLbc7iDbbBHVVUOS-87" value="&amp;lt;&amp;lt;component&amp;gt;&amp;gt;" style="text;html=1;align=center;verticalAlign=middle;resizable=0;points=[];autosize=1;strokeColor=none;fillColor=none;fontColor=#FFFFFF;" parent="1" vertex="1">
          <mxGeometry x="-350" y="360" width="110" height="30" as="geometry" />
        </mxCell>
        <mxCell id="4uh7wLbc7iDbbBHVVUOS-88" value="&amp;lt;&amp;lt;component&amp;gt;&amp;gt;" style="text;html=1;align=center;verticalAlign=middle;resizable=0;points=[];autosize=1;strokeColor=none;fillColor=none;fontColor=#FFFFFF;" parent="1" vertex="1">
          <mxGeometry x="-60" y="360" width="110" height="30" as="geometry" />
        </mxCell>
        <mxCell id="4uh7wLbc7iDbbBHVVUOS-89" value="&amp;lt;&amp;lt;component&amp;gt;&amp;gt;" style="text;html=1;align=center;verticalAlign=middle;resizable=0;points=[];autosize=1;strokeColor=none;fillColor=none;fontColor=#FFFFFF;" parent="1" vertex="1">
          <mxGeometry x="-60" y="460" width="110" height="30" as="geometry" />
        </mxCell>
        <mxCell id="4uh7wLbc7iDbbBHVVUOS-90" style="edgeStyle=orthogonalEdgeStyle;rounded=0;orthogonalLoop=1;jettySize=auto;html=1;exitX=0.75;exitY=1;exitDx=0;exitDy=0;endArrow=halfCircle;endFill=0;fontColor=#FFFFFF;" parent="1" source="4uh7wLbc7iDbbBHVVUOS-55" edge="1">
          <mxGeometry relative="1" as="geometry">
            <mxPoint x="-270" y="340" as="targetPoint" />
            <mxPoint x="-312" y="380" as="sourcePoint" />
          </mxGeometry>
        </mxCell>
        <mxCell id="4uh7wLbc7iDbbBHVVUOS-91" style="edgeStyle=orthogonalEdgeStyle;rounded=0;orthogonalLoop=1;jettySize=auto;html=1;endArrow=oval;endFill=0;exitX=0.75;exitY=0;exitDx=0;exitDy=0;fontColor=#FFFFFF;" parent="1" source="4uh7wLbc7iDbbBHVVUOS-58" edge="1">
          <mxGeometry relative="1" as="geometry">
            <mxPoint x="-312" y="330" as="sourcePoint" />
            <mxPoint x="-270" y="340" as="targetPoint" />
            <Array as="points" />
          </mxGeometry>
        </mxCell>
        <mxCell id="4uh7wLbc7iDbbBHVVUOS-92" style="edgeStyle=orthogonalEdgeStyle;rounded=0;orthogonalLoop=1;jettySize=auto;html=1;exitX=0.75;exitY=1;exitDx=0;exitDy=0;endArrow=halfCircle;endFill=0;fontColor=#FFFFFF;" parent="1" source="4uh7wLbc7iDbbBHVVUOS-58" edge="1">
          <mxGeometry relative="1" as="geometry">
            <mxPoint x="-267" y="440" as="targetPoint" />
            <mxPoint x="-257" y="330" as="sourcePoint" />
            <Array as="points">
              <mxPoint x="-267" y="430" />
              <mxPoint x="-267" y="430" />
            </Array>
          </mxGeometry>
        </mxCell>
        <mxCell id="4uh7wLbc7iDbbBHVVUOS-93" style="edgeStyle=orthogonalEdgeStyle;rounded=0;orthogonalLoop=1;jettySize=auto;html=1;endArrow=oval;endFill=0;exitX=0.75;exitY=0;exitDx=0;exitDy=0;fontColor=#FFFFFF;" parent="1" source="4uh7wLbc7iDbbBHVVUOS-60" edge="1">
          <mxGeometry relative="1" as="geometry">
            <mxPoint x="-257" y="380" as="sourcePoint" />
            <mxPoint x="-267" y="440" as="targetPoint" />
            <Array as="points" />
          </mxGeometry>
        </mxCell>
        <mxCell id="4uh7wLbc7iDbbBHVVUOS-99" value="" style="ellipse;whiteSpace=wrap;html=1;aspect=fixed;fillColor=#1ba1e2;fontColor=#FFFFFF;strokeColor=#006EAF;" parent="1" vertex="1">
          <mxGeometry x="-326" y="70" width="30" height="30" as="geometry" />
        </mxCell>
        <mxCell id="4uh7wLbc7iDbbBHVVUOS-100" value="Rest API" style="text;html=1;align=center;verticalAlign=middle;resizable=0;points=[];autosize=1;strokeColor=none;fillColor=none;" parent="1" vertex="1">
          <mxGeometry x="-360" y="40" width="70" height="30" as="geometry" />
        </mxCell>
        <mxCell id="4uh7wLbc7iDbbBHVVUOS-101" style="edgeStyle=orthogonalEdgeStyle;rounded=0;orthogonalLoop=1;jettySize=auto;html=1;entryX=0.75;entryY=0;entryDx=0;entryDy=0;strokeColor=default;endArrow=none;startFill=0;endFill=0;startArrow=halfCircle;fontColor=#FFFFFF;" parent="1" edge="1">
          <mxGeometry relative="1" as="geometry">
            <mxPoint x="5" y="270" as="targetPoint" />
            <mxPoint x="4" y="90" as="sourcePoint" />
            <Array as="points">
              <mxPoint x="4" y="240" />
            </Array>
          </mxGeometry>
        </mxCell>
        <mxCell id="4uh7wLbc7iDbbBHVVUOS-102" value="&lt;font style=&quot;color: rgb(0, 0, 0);&quot;&gt;PostGres&lt;/font&gt;" style="text;html=1;align=center;verticalAlign=middle;resizable=0;points=[];autosize=1;strokeColor=none;fillColor=none;fontColor=#FFFFFF;" parent="1" vertex="1">
          <mxGeometry x="-36" y="60" width="70" height="30" as="geometry" />
        </mxCell>
        <mxCell id="4uh7wLbc7iDbbBHVVUOS-103" style="edgeStyle=orthogonalEdgeStyle;rounded=0;orthogonalLoop=1;jettySize=auto;html=1;exitX=0.5;exitY=1;exitDx=0;exitDy=0;strokeColor=default;endArrow=none;startFill=0;entryX=0.5;entryY=0;entryDx=0;entryDy=0;jumpSize=0;jumpStyle=line;fontColor=#FFFFFF;" parent="1" source="4uh7wLbc7iDbbBHVVUOS-99" edge="1">
          <mxGeometry relative="1" as="geometry">
            <mxPoint x="-313" y="270" as="targetPoint" />
            <Array as="points">
              <mxPoint x="-311" y="130" />
              <mxPoint x="-311" y="130" />
            </Array>
          </mxGeometry>
        </mxCell>
        <mxCell id="4uh7wLbc7iDbbBHVVUOS-109" value="" style="rounded=0;whiteSpace=wrap;html=1;fillColor=light-dark(#000099,#000099);fontColor=#FFFFFF;" parent="1" vertex="1">
          <mxGeometry x="139" y="380" width="110" height="50" as="geometry" />
        </mxCell>
        <mxCell id="4uh7wLbc7iDbbBHVVUOS-110" value="LoggerController" style="text;html=1;align=center;verticalAlign=middle;resizable=0;points=[];autosize=1;strokeColor=none;fillColor=none;fontColor=#FFFFFF;" parent="1" vertex="1">
          <mxGeometry x="139" y="390" width="110" height="30" as="geometry" />
        </mxCell>
        <mxCell id="4uh7wLbc7iDbbBHVVUOS-112" value="&amp;lt;&amp;lt;component&amp;gt;&amp;gt;" style="text;html=1;align=center;verticalAlign=middle;resizable=0;points=[];autosize=1;strokeColor=none;fillColor=none;fontColor=#FFFFFF;" parent="1" vertex="1">
          <mxGeometry x="139" y="370" width="110" height="30" as="geometry" />
        </mxCell>
        <mxCell id="4uh7wLbc7iDbbBHVVUOS-113" style="edgeStyle=orthogonalEdgeStyle;rounded=0;orthogonalLoop=1;jettySize=auto;html=1;exitX=0.014;exitY=0.538;exitDx=0;exitDy=0;endArrow=halfCircle;endFill=0;exitPerimeter=0;fontColor=#FFFFFF;" parent="1" source="4uh7wLbc7iDbbBHVVUOS-110" edge="1">
          <mxGeometry relative="1" as="geometry">
            <mxPoint x="110" y="350" as="targetPoint" />
            <mxPoint x="232" y="340" as="sourcePoint" />
            <Array as="points">
              <mxPoint x="130" y="406" />
              <mxPoint x="130" y="350" />
            </Array>
          </mxGeometry>
        </mxCell>
        <mxCell id="4uh7wLbc7iDbbBHVVUOS-114" style="edgeStyle=orthogonalEdgeStyle;rounded=0;orthogonalLoop=1;jettySize=auto;html=1;endArrow=oval;endFill=0;exitX=1.005;exitY=0.395;exitDx=0;exitDy=0;exitPerimeter=0;fontColor=#FFFFFF;" parent="1" source="4uh7wLbc7iDbbBHVVUOS-69" edge="1">
          <mxGeometry relative="1" as="geometry">
            <mxPoint x="177" y="440" as="sourcePoint" />
            <mxPoint x="105" y="350" as="targetPoint" />
            <Array as="points">
              <mxPoint x="105" y="292" />
            </Array>
          </mxGeometry>
        </mxCell>
        <mxCell id="4uh7wLbc7iDbbBHVVUOS-116" style="edgeStyle=orthogonalEdgeStyle;rounded=0;orthogonalLoop=1;jettySize=auto;html=1;endArrow=oval;endFill=0;exitX=0.023;exitY=1.062;exitDx=0;exitDy=0;exitPerimeter=0;fontColor=#FFFFFF;" parent="1" edge="1">
          <mxGeometry relative="1" as="geometry">
            <mxPoint x="348.52999999999975" y="292.8599999999999" as="sourcePoint" />
            <mxPoint x="280" y="351" as="targetPoint" />
            <Array as="points">
              <mxPoint x="280" y="293" />
            </Array>
          </mxGeometry>
        </mxCell>
        <mxCell id="4uh7wLbc7iDbbBHVVUOS-120" style="edgeStyle=orthogonalEdgeStyle;rounded=0;orthogonalLoop=1;jettySize=auto;html=1;exitX=1.001;exitY=0.348;exitDx=0;exitDy=0;endArrow=halfCircle;endFill=0;exitPerimeter=0;fontColor=#FFFFFF;" parent="1" source="4uh7wLbc7iDbbBHVVUOS-110" edge="1">
          <mxGeometry relative="1" as="geometry">
            <mxPoint x="280" y="350" as="targetPoint" />
            <mxPoint x="151" y="416" as="sourcePoint" />
            <Array as="points">
              <mxPoint x="269" y="400" />
              <mxPoint x="269" y="350" />
            </Array>
          </mxGeometry>
        </mxCell>
        <mxCell id="4uh7wLbc7iDbbBHVVUOS-121" value="" style="rounded=0;whiteSpace=wrap;html=1;fillColor=light-dark(#000099,#000099);fontColor=#FFFFFF;" parent="1" vertex="1">
          <mxGeometry x="135" y="480" width="110" height="50" as="geometry" />
        </mxCell>
        <mxCell id="4uh7wLbc7iDbbBHVVUOS-122" value="LoggerService" style="text;html=1;align=center;verticalAlign=middle;resizable=0;points=[];autosize=1;strokeColor=none;fillColor=none;fontColor=#FFFFFF;" parent="1" vertex="1">
          <mxGeometry x="140" y="490" width="100" height="30" as="geometry" />
        </mxCell>
        <mxCell id="4uh7wLbc7iDbbBHVVUOS-123" style="edgeStyle=orthogonalEdgeStyle;rounded=0;orthogonalLoop=1;jettySize=auto;html=1;exitX=0.25;exitY=0;exitDx=0;exitDy=0;endArrow=halfCircle;endFill=0;fontColor=#FFFFFF;" parent="1" source="4uh7wLbc7iDbbBHVVUOS-121" edge="1">
          <mxGeometry relative="1" as="geometry">
            <mxPoint x="163" y="450" as="targetPoint" />
            <mxPoint x="173" y="390" as="sourcePoint" />
          </mxGeometry>
        </mxCell>
        <mxCell id="4uh7wLbc7iDbbBHVVUOS-124" style="edgeStyle=orthogonalEdgeStyle;rounded=0;orthogonalLoop=1;jettySize=auto;html=1;endArrow=oval;endFill=0;exitX=0.25;exitY=1;exitDx=0;exitDy=0;fontColor=#FFFFFF;" parent="1" edge="1">
          <mxGeometry relative="1" as="geometry">
            <mxPoint x="163" y="430" as="sourcePoint" />
            <mxPoint x="163" y="450" as="targetPoint" />
            <Array as="points">
              <mxPoint x="163" y="450" />
            </Array>
          </mxGeometry>
        </mxCell>
        <mxCell id="4uh7wLbc7iDbbBHVVUOS-125" value="&amp;lt;&amp;lt;component&amp;gt;&amp;gt;" style="text;html=1;align=center;verticalAlign=middle;resizable=0;points=[];autosize=1;strokeColor=none;fillColor=none;fontColor=#FFFFFF;" parent="1" vertex="1">
          <mxGeometry x="135" y="470" width="110" height="30" as="geometry" />
        </mxCell>
        <mxCell id="4uh7wLbc7iDbbBHVVUOS-126" style="edgeStyle=orthogonalEdgeStyle;rounded=0;orthogonalLoop=1;jettySize=auto;html=1;exitX=0.75;exitY=1;exitDx=0;exitDy=0;endArrow=halfCircle;endFill=0;fontColor=#FFFFFF;" parent="1" edge="1">
          <mxGeometry relative="1" as="geometry">
            <mxPoint x="218" y="450" as="targetPoint" />
            <mxPoint x="218" y="430" as="sourcePoint" />
            <Array as="points">
              <mxPoint x="218" y="440" />
              <mxPoint x="218" y="440" />
            </Array>
          </mxGeometry>
        </mxCell>
        <mxCell id="4uh7wLbc7iDbbBHVVUOS-127" style="edgeStyle=orthogonalEdgeStyle;rounded=0;orthogonalLoop=1;jettySize=auto;html=1;endArrow=oval;endFill=0;exitX=0.75;exitY=0;exitDx=0;exitDy=0;fontColor=#FFFFFF;" parent="1" source="4uh7wLbc7iDbbBHVVUOS-121" edge="1">
          <mxGeometry relative="1" as="geometry">
            <mxPoint x="228" y="390" as="sourcePoint" />
            <mxPoint x="218" y="450" as="targetPoint" />
            <Array as="points" />
          </mxGeometry>
        </mxCell>
        <mxCell id="4uh7wLbc7iDbbBHVVUOS-128" value="" style="rounded=0;whiteSpace=wrap;html=1;fillColor=light-dark(#000099,#000099);fontColor=#FFFFFF;" parent="1" vertex="1">
          <mxGeometry x="-100" y="582.5" width="110" height="50" as="geometry" />
        </mxCell>
        <mxCell id="4uh7wLbc7iDbbBHVVUOS-129" value="BankAccount&lt;span style=&quot;caret-color: rgba(0, 0, 0, 0); font-family: monospace; font-size: 0px; text-align: start;&quot;&gt;%3CmxGraphModel%3E%3Croot%3E%3CmxCell%20id%3D%220%22%2F%3E%3CmxCell%20id%3D%221%22%20parent%3D%220%22%2F%3E%3CmxCell%20id%3D%222%22%20value%3D%22%22%20style%3D%22rounded%3D0%3BwhiteSpace%3Dwrap%3Bhtml%3D1%3BfillColor%3Dlight-dark(%23FFFFFF%2C%23000099)%3B%22%20vertex%3D%221%22%20parent%3D%221%22%3E%3CmxGeometry%20x%3D%22-270%22%20y%3D%22577.5%22%20width%3D%22110%22%20height%3D%2250%22%20as%3D%22geometry%22%2F%3E%3C%2FmxCell%3E%3CmxCell%20id%3D%223%22%20value%3D%22User%22%20style%3D%22text%3Bhtml%3D1%3Balign%3Dcenter%3BverticalAlign%3Dmiddle%3Bresizable%3D0%3Bpoints%3D%5B%5D%3Bautosize%3D1%3BstrokeColor%3Dnone%3BfillColor%3Dnone%3B%22%20vertex%3D%221%22%20parent%3D%221%22%3E%3CmxGeometry%20x%3D%22-240%22%20y%3D%22587.5%22%20width%3D%2250%22%20height%3D%2230%22%20as%3D%22geometry%22%2F%3E%3C%2FmxCell%3E%3CmxCell%20id%3D%224%22%20value%3D%22%26amp%3Blt%3B%26amp%3Blt%3Bcomponent%26amp%3Bgt%3B%26amp%3Bgt%3B%22%20style%3D%22text%3Bhtml%3D1%3Balign%3Dcenter%3BverticalAlign%3Dmiddle%3Bresizable%3D0%3Bpoints%3D%5B%5D%3Bautosize%3D1%3BstrokeColor%3Dnone%3BfillColor%3Dnone%3B%22%20vertex%3D%221%22%20parent%3D%221%22%3E%3CmxGeometry%20x%3D%22-270%22%20y%3D%22572.5%22%20width%3D%22110%22%20height%3D%2230%22%20as%3D%22geometry%22%2F%3E%3C%2FmxCell%3E%3C%2Froot%3E%3C%2FmxGraphModel%3E&lt;/span&gt;" style="text;html=1;align=center;verticalAlign=middle;resizable=0;points=[];autosize=1;strokeColor=none;fillColor=none;fontColor=#FFFFFF;" parent="1" vertex="1">
          <mxGeometry x="-90" y="592.5" width="90" height="30" as="geometry" />
        </mxCell>
        <mxCell id="4uh7wLbc7iDbbBHVVUOS-130" value="&amp;lt;&amp;lt;component&amp;gt;&amp;gt;" style="text;html=1;align=center;verticalAlign=middle;resizable=0;points=[];autosize=1;strokeColor=none;fillColor=none;fontColor=#FFFFFF;" parent="1" vertex="1">
          <mxGeometry x="-100" y="577.5" width="110" height="30" as="geometry" />
        </mxCell>
        <mxCell id="4uh7wLbc7iDbbBHVVUOS-131" value="" style="rounded=0;whiteSpace=wrap;html=1;fillColor=light-dark(#000099,#000099);fontColor=#FFFFFF;" parent="1" vertex="1">
          <mxGeometry x="238" y="585" width="110" height="50" as="geometry" />
        </mxCell>
        <mxCell id="4uh7wLbc7iDbbBHVVUOS-132" value="PaymentDocument" style="text;html=1;align=center;verticalAlign=middle;resizable=0;points=[];autosize=1;strokeColor=none;fillColor=none;fontColor=#FFFFFF;" parent="1" vertex="1">
          <mxGeometry x="228" y="595" width="130" height="30" as="geometry" />
        </mxCell>
        <mxCell id="4uh7wLbc7iDbbBHVVUOS-133" value="&amp;lt;&amp;lt;component&amp;gt;&amp;gt;" style="text;html=1;align=center;verticalAlign=middle;resizable=0;points=[];autosize=1;strokeColor=none;fillColor=none;fontColor=#FFFFFF;" parent="1" vertex="1">
          <mxGeometry x="238" y="580" width="110" height="30" as="geometry" />
        </mxCell>
        <mxCell id="4uh7wLbc7iDbbBHVVUOS-136" style="edgeStyle=orthogonalEdgeStyle;rounded=0;orthogonalLoop=1;jettySize=auto;html=1;endArrow=oval;endFill=0;fontColor=#FFFFFF;" parent="1" edge="1" source="4uh7wLbc7iDbbBHVVUOS-133">
          <mxGeometry relative="1" as="geometry">
            <mxPoint x="339" y="580" as="sourcePoint" />
            <mxPoint x="350" y="570" as="targetPoint" />
            <Array as="points">
              <mxPoint x="350" y="590" />
            </Array>
          </mxGeometry>
        </mxCell>
        <mxCell id="4uh7wLbc7iDbbBHVVUOS-137" style="edgeStyle=orthogonalEdgeStyle;rounded=0;orthogonalLoop=1;jettySize=auto;html=1;exitX=0;exitY=1;exitDx=0;exitDy=0;endArrow=halfCircle;endFill=0;fontColor=#FFFFFF;" parent="1" edge="1" source="TXpV8QBchbM1sa9OBaiE-28">
          <mxGeometry relative="1" as="geometry">
            <mxPoint x="348" y="570" as="targetPoint" />
            <mxPoint x="691" y="529" as="sourcePoint" />
            <Array as="points">
              <mxPoint x="348" y="570" />
            </Array>
          </mxGeometry>
        </mxCell>
        <mxCell id="4uh7wLbc7iDbbBHVVUOS-147" style="edgeStyle=orthogonalEdgeStyle;rounded=0;orthogonalLoop=1;jettySize=auto;html=1;endArrow=oval;endFill=0;fontColor=#FFFFFF;" parent="1" edge="1">
          <mxGeometry relative="1" as="geometry">
            <mxPoint x="480" y="610" as="sourcePoint" />
            <mxPoint x="396" y="609.5" as="targetPoint" />
            <Array as="points">
              <mxPoint x="440" y="609.5" />
              <mxPoint x="440" y="609.5" />
            </Array>
          </mxGeometry>
        </mxCell>
        <mxCell id="4uh7wLbc7iDbbBHVVUOS-148" style="edgeStyle=orthogonalEdgeStyle;rounded=0;orthogonalLoop=1;jettySize=auto;html=1;exitX=1;exitY=0.5;exitDx=0;exitDy=0;endArrow=halfCircle;endFill=0;fontColor=#FFFFFF;" parent="1" edge="1">
          <mxGeometry relative="1" as="geometry">
            <mxPoint x="390" y="610" as="targetPoint" />
            <mxPoint x="350" y="610" as="sourcePoint" />
            <Array as="points">
              <mxPoint x="350" y="610" />
            </Array>
          </mxGeometry>
        </mxCell>
        <mxCell id="4uh7wLbc7iDbbBHVVUOS-156" style="edgeStyle=orthogonalEdgeStyle;rounded=0;orthogonalLoop=1;jettySize=auto;html=1;endArrow=oval;endFill=0;exitX=0;exitY=0.75;exitDx=0;exitDy=0;fontColor=#FFFFFF;" parent="1" edge="1" source="4uh7wLbc7iDbbBHVVUOS-128">
          <mxGeometry relative="1" as="geometry">
            <mxPoint x="490" y="620" as="sourcePoint" />
            <mxPoint x="-130" y="620" as="targetPoint" />
            <Array as="points">
              <mxPoint x="-110" y="620" />
              <mxPoint x="-110" y="620" />
            </Array>
          </mxGeometry>
        </mxCell>
        <mxCell id="4uh7wLbc7iDbbBHVVUOS-157" style="edgeStyle=orthogonalEdgeStyle;rounded=0;orthogonalLoop=1;jettySize=auto;html=1;exitX=0.982;exitY=0.89;exitDx=0;exitDy=0;endArrow=halfCircle;endFill=0;exitPerimeter=0;fontColor=#FFFFFF;" parent="1" edge="1" source="4uh7wLbc7iDbbBHVVUOS-62">
          <mxGeometry relative="1" as="geometry">
            <mxPoint x="-130" y="622" as="targetPoint" />
            <mxPoint x="360" y="620" as="sourcePoint" />
            <Array as="points">
              <mxPoint x="-140" y="622" />
              <mxPoint x="-140" y="622" />
            </Array>
          </mxGeometry>
        </mxCell>
        <mxCell id="4uh7wLbc7iDbbBHVVUOS-160" style="edgeStyle=orthogonalEdgeStyle;rounded=0;orthogonalLoop=1;jettySize=auto;html=1;endArrow=oval;endFill=0;fontColor=#FFFFFF;" parent="1" edge="1">
          <mxGeometry relative="1" as="geometry">
            <mxPoint x="-60" y="505" as="sourcePoint" />
            <mxPoint x="-150" y="550" as="targetPoint" />
            <Array as="points">
              <mxPoint x="-147" y="505" />
            </Array>
          </mxGeometry>
        </mxCell>
        <mxCell id="4uh7wLbc7iDbbBHVVUOS-161" style="edgeStyle=orthogonalEdgeStyle;rounded=0;orthogonalLoop=1;jettySize=auto;html=1;exitX=1;exitY=0.75;exitDx=0;exitDy=0;endArrow=halfCircle;endFill=0;fontColor=#FFFFFF;" parent="1" source="4uh7wLbc7iDbbBHVVUOS-62" edge="1">
          <mxGeometry relative="1" as="geometry">
            <mxPoint x="-150" y="550" as="targetPoint" />
            <mxPoint x="-230" y="505" as="sourcePoint" />
            <Array as="points">
              <mxPoint x="-150" y="615" />
            </Array>
          </mxGeometry>
        </mxCell>
        <mxCell id="J0Tyu2LxOpXG8XHQNZr5-4" value="&amp;lt;&amp;lt;component&amp;gt;&amp;gt;" style="text;html=1;align=center;verticalAlign=middle;resizable=0;points=[];autosize=1;strokeColor=none;fillColor=none;fontColor=#FFFFFF;" vertex="1" parent="1">
          <mxGeometry x="-350" y="260" width="110" height="30" as="geometry" />
        </mxCell>
        <mxCell id="J0Tyu2LxOpXG8XHQNZr5-5" value="&amp;lt;&amp;lt;component&amp;gt;&amp;gt;" style="text;html=1;align=center;verticalAlign=middle;resizable=0;points=[];autosize=1;strokeColor=none;fillColor=none;fontColor=#FFFFFF;" vertex="1" parent="1">
          <mxGeometry x="-60" y="260" width="110" height="30" as="geometry" />
        </mxCell>
      </root>
    </mxGraphModel>
  </diagram>
</mxfile>
